<mxfile host="app.diagrams.net" modified="2024-05-04T23:31:12.311Z" agent="Mozilla/5.0 (Windows NT 10.0; Win64; x64) AppleWebKit/537.36 (KHTML, like Gecko) Chrome/124.0.0.0 Safari/537.36" etag="p6etG-mY1sgJcmGyMOmo" version="24.3.1" type="google">
  <diagram name="Page-1" id="_ZrC7_AyCr-9D5e1H9Fy">
    <mxGraphModel grid="1" page="1" gridSize="10" guides="1" tooltips="1" connect="1" arrows="1" fold="1" pageScale="1" pageWidth="850" pageHeight="1100" math="0" shadow="0">
      <root>
        <mxCell id="0" />
        <mxCell id="1" parent="0" />
        <mxCell id="IURU3j5ebyQQw9xy1G_i-1" value="Actor" style="shape=umlActor;verticalLabelPosition=bottom;verticalAlign=top;html=1;outlineConnect=0;" vertex="1" parent="1">
          <mxGeometry x="-170" y="60" width="30" height="60" as="geometry" />
        </mxCell>
        <mxCell id="IURU3j5ebyQQw9xy1G_i-2" value="" style="edgeStyle=orthogonalEdgeStyle;rounded=0;orthogonalLoop=1;jettySize=auto;html=1;endArrow=none;endFill=0;dashed=1;" edge="1" parent="1" source="IURU3j5ebyQQw9xy1G_i-1" target="IURU3j5ebyQQw9xy1G_i-4">
          <mxGeometry relative="1" as="geometry">
            <mxPoint x="-175" y="701.6000366210938" as="targetPoint" />
            <mxPoint x="-175" y="120" as="sourcePoint" />
          </mxGeometry>
        </mxCell>
        <mxCell id="IURU3j5ebyQQw9xy1G_i-3" style="edgeStyle=orthogonalEdgeStyle;rounded=0;orthogonalLoop=1;jettySize=auto;html=1;exitX=1;exitY=0.25;exitDx=0;exitDy=0;entryX=0;entryY=0.25;entryDx=0;entryDy=0;" edge="1" parent="1" source="IURU3j5ebyQQw9xy1G_i-4" target="IURU3j5ebyQQw9xy1G_i-10">
          <mxGeometry relative="1" as="geometry" />
        </mxCell>
        <mxCell id="IURU3j5ebyQQw9xy1G_i-4" value="" style="rounded=0;whiteSpace=wrap;html=1;" vertex="1" parent="1">
          <mxGeometry x="-160" y="170" width="10" height="60" as="geometry" />
        </mxCell>
        <mxCell id="IURU3j5ebyQQw9xy1G_i-5" style="edgeStyle=orthogonalEdgeStyle;rounded=0;orthogonalLoop=1;jettySize=auto;html=1;exitX=1;exitY=0.25;exitDx=0;exitDy=0;entryX=0;entryY=0.25;entryDx=0;entryDy=0;" edge="1" parent="1" source="IURU3j5ebyQQw9xy1G_i-10" target="IURU3j5ebyQQw9xy1G_i-8">
          <mxGeometry relative="1" as="geometry" />
        </mxCell>
        <mxCell id="IURU3j5ebyQQw9xy1G_i-6" style="edgeStyle=orthogonalEdgeStyle;rounded=0;orthogonalLoop=1;jettySize=auto;html=1;entryX=0.5;entryY=0;entryDx=0;entryDy=0;dashed=1;endArrow=none;endFill=0;" edge="1" parent="1" source="IURU3j5ebyQQw9xy1G_i-7" target="IURU3j5ebyQQw9xy1G_i-10">
          <mxGeometry relative="1" as="geometry" />
        </mxCell>
        <mxCell id="IURU3j5ebyQQw9xy1G_i-7" value="mGUI: MainGUI" style="rounded=0;whiteSpace=wrap;html=1;" vertex="1" parent="1">
          <mxGeometry x="-30" y="60" width="120" height="60" as="geometry" />
        </mxCell>
        <mxCell id="IURU3j5ebyQQw9xy1G_i-8" value="accountGUI: AccountsGUI" style="rounded=0;whiteSpace=wrap;html=1;" vertex="1" parent="1">
          <mxGeometry x="160" y="170" width="120" height="60" as="geometry" />
        </mxCell>
        <mxCell id="IURU3j5ebyQQw9xy1G_i-9" style="edgeStyle=orthogonalEdgeStyle;rounded=0;orthogonalLoop=1;jettySize=auto;html=1;exitX=1;exitY=0.75;exitDx=0;exitDy=0;entryX=0;entryY=0.25;entryDx=0;entryDy=0;" edge="1" parent="1" source="IURU3j5ebyQQw9xy1G_i-10" target="IURU3j5ebyQQw9xy1G_i-28">
          <mxGeometry relative="1" as="geometry" />
        </mxCell>
        <mxCell id="zSfBh07-GXkJKnBQOEwd-31" style="edgeStyle=orthogonalEdgeStyle;rounded=0;orthogonalLoop=1;jettySize=auto;html=1;dashed=1;endArrow=none;endFill=0;" edge="1" parent="1" source="IURU3j5ebyQQw9xy1G_i-10">
          <mxGeometry relative="1" as="geometry">
            <mxPoint x="30" y="790" as="targetPoint" />
          </mxGeometry>
        </mxCell>
        <mxCell id="IURU3j5ebyQQw9xy1G_i-10" value="" style="rounded=0;whiteSpace=wrap;html=1;" vertex="1" parent="1">
          <mxGeometry x="25" y="170" width="10" height="100" as="geometry" />
        </mxCell>
        <mxCell id="IURU3j5ebyQQw9xy1G_i-11" value="" style="edgeStyle=orthogonalEdgeStyle;rounded=0;orthogonalLoop=1;jettySize=auto;html=1;dashed=1;endArrow=none;endFill=0;" edge="1" parent="1" source="IURU3j5ebyQQw9xy1G_i-8" target="IURU3j5ebyQQw9xy1G_i-14">
          <mxGeometry relative="1" as="geometry">
            <mxPoint x="220" y="580" as="targetPoint" />
            <mxPoint x="220" y="230" as="sourcePoint" />
          </mxGeometry>
        </mxCell>
        <mxCell id="IURU3j5ebyQQw9xy1G_i-14" value="" style="rounded=0;whiteSpace=wrap;html=1;" vertex="1" parent="1">
          <mxGeometry x="215" y="280" width="10" height="160" as="geometry" />
        </mxCell>
        <mxCell id="IURU3j5ebyQQw9xy1G_i-15" value="data: Financial Data" style="rounded=0;whiteSpace=wrap;html=1;" vertex="1" parent="1">
          <mxGeometry x="580" y="60" width="120" height="60" as="geometry" />
        </mxCell>
        <mxCell id="IURU3j5ebyQQw9xy1G_i-16" value="" style="edgeStyle=orthogonalEdgeStyle;rounded=0;orthogonalLoop=1;jettySize=auto;html=1;endArrow=none;endFill=0;dashed=1;" edge="1" parent="1" source="IURU3j5ebyQQw9xy1G_i-4" target="IURU3j5ebyQQw9xy1G_i-18">
          <mxGeometry relative="1" as="geometry">
            <mxPoint x="-155" y="691.6000366210938" as="targetPoint" />
            <mxPoint x="-155" y="230" as="sourcePoint" />
          </mxGeometry>
        </mxCell>
        <mxCell id="IURU3j5ebyQQw9xy1G_i-17" style="edgeStyle=orthogonalEdgeStyle;rounded=0;orthogonalLoop=1;jettySize=auto;html=1;exitX=1;exitY=0.25;exitDx=0;exitDy=0;entryX=0;entryY=0.25;entryDx=0;entryDy=0;" edge="1" parent="1" source="IURU3j5ebyQQw9xy1G_i-18" target="IURU3j5ebyQQw9xy1G_i-14">
          <mxGeometry relative="1" as="geometry">
            <Array as="points">
              <mxPoint y="295" />
              <mxPoint y="320" />
            </Array>
          </mxGeometry>
        </mxCell>
        <mxCell id="IURU3j5ebyQQw9xy1G_i-18" value="" style="rounded=0;whiteSpace=wrap;html=1;" vertex="1" parent="1">
          <mxGeometry x="-160" y="280" width="10" height="60" as="geometry" />
        </mxCell>
        <mxCell id="IURU3j5ebyQQw9xy1G_i-19" value="" style="edgeStyle=orthogonalEdgeStyle;rounded=0;orthogonalLoop=1;jettySize=auto;html=1;dashed=1;endArrow=none;endFill=0;" edge="1" parent="1" source="IURU3j5ebyQQw9xy1G_i-15" target="IURU3j5ebyQQw9xy1G_i-21">
          <mxGeometry relative="1" as="geometry">
            <mxPoint x="640" y="580" as="targetPoint" />
            <mxPoint x="640" y="120" as="sourcePoint" />
          </mxGeometry>
        </mxCell>
        <mxCell id="zSfBh07-GXkJKnBQOEwd-29" style="edgeStyle=orthogonalEdgeStyle;rounded=0;orthogonalLoop=1;jettySize=auto;html=1;exitX=0;exitY=0.75;exitDx=0;exitDy=0;dashed=1;" edge="1" parent="1" source="IURU3j5ebyQQw9xy1G_i-21">
          <mxGeometry relative="1" as="geometry">
            <mxPoint x="230" y="410" as="targetPoint" />
          </mxGeometry>
        </mxCell>
        <mxCell id="IURU3j5ebyQQw9xy1G_i-21" value="" style="rounded=0;whiteSpace=wrap;html=1;" vertex="1" parent="1">
          <mxGeometry x="635" y="355" width="10" height="60" as="geometry" />
        </mxCell>
        <mxCell id="IURU3j5ebyQQw9xy1G_i-22" value="" style="edgeStyle=orthogonalEdgeStyle;rounded=0;orthogonalLoop=1;jettySize=auto;html=1;endArrow=none;endFill=0;dashed=1;" edge="1" parent="1" source="IURU3j5ebyQQw9xy1G_i-18">
          <mxGeometry relative="1" as="geometry">
            <mxPoint x="-155" y="800" as="targetPoint" />
            <mxPoint x="-155" y="340" as="sourcePoint" />
          </mxGeometry>
        </mxCell>
        <mxCell id="IURU3j5ebyQQw9xy1G_i-26" value="4: payCreditCardBill()" style="text;html=1;align=center;verticalAlign=middle;whiteSpace=wrap;rounded=0;" vertex="1" parent="1">
          <mxGeometry x="35" y="305" width="164.5" height="10" as="geometry" />
        </mxCell>
        <mxCell id="IURU3j5ebyQQw9xy1G_i-27" value="2: new()" style="text;html=1;align=center;verticalAlign=middle;whiteSpace=wrap;rounded=0;" vertex="1" parent="1">
          <mxGeometry x="69" y="170" width="60" height="10" as="geometry" />
        </mxCell>
        <mxCell id="IURU3j5ebyQQw9xy1G_i-28" value="" style="rounded=0;whiteSpace=wrap;html=1;" vertex="1" parent="1">
          <mxGeometry x="215" y="240" width="10" height="20" as="geometry" />
        </mxCell>
        <mxCell id="IURU3j5ebyQQw9xy1G_i-29" value="3: show()" style="text;html=1;align=center;verticalAlign=middle;whiteSpace=wrap;rounded=0;" vertex="1" parent="1">
          <mxGeometry x="29.5" y="250" width="171" height="10" as="geometry" />
        </mxCell>
        <mxCell id="IURU3j5ebyQQw9xy1G_i-35" style="edgeStyle=orthogonalEdgeStyle;rounded=0;orthogonalLoop=1;jettySize=auto;html=1;exitX=1;exitY=0.5;exitDx=0;exitDy=0;entryX=0.148;entryY=0.121;entryDx=0;entryDy=0;entryPerimeter=0;" edge="1" parent="1" source="IURU3j5ebyQQw9xy1G_i-14" target="IURU3j5ebyQQw9xy1G_i-21">
          <mxGeometry relative="1" as="geometry" />
        </mxCell>
        <mxCell id="IURU3j5ebyQQw9xy1G_i-36" value="5: payCreditBill()" style="text;html=1;align=center;verticalAlign=middle;whiteSpace=wrap;rounded=0;" vertex="1" parent="1">
          <mxGeometry x="440" y="345" width="160" height="10" as="geometry" />
        </mxCell>
        <mxCell id="IURU3j5ebyQQw9xy1G_i-40" value="" style="edgeStyle=orthogonalEdgeStyle;rounded=0;orthogonalLoop=1;jettySize=auto;html=1;exitX=0.5;exitY=1;exitDx=0;exitDy=0;dashed=1;endArrow=none;endFill=0;" edge="1" parent="1" source="IURU3j5ebyQQw9xy1G_i-14">
          <mxGeometry relative="1" as="geometry">
            <mxPoint x="220" y="770" as="targetPoint" />
            <mxPoint x="220" y="440" as="sourcePoint" />
          </mxGeometry>
        </mxCell>
        <mxCell id="IURU3j5ebyQQw9xy1G_i-51" value="" style="edgeStyle=orthogonalEdgeStyle;rounded=0;orthogonalLoop=1;jettySize=auto;html=1;dashed=1;endArrow=none;endFill=0;" edge="1" parent="1" source="IURU3j5ebyQQw9xy1G_i-21">
          <mxGeometry relative="1" as="geometry">
            <mxPoint x="640" y="780" as="targetPoint" />
            <mxPoint x="640" y="415" as="sourcePoint" />
          </mxGeometry>
        </mxCell>
        <mxCell id="IURU3j5ebyQQw9xy1G_i-54" value="1: openAccountsGUI()" style="text;html=1;align=center;verticalAlign=middle;whiteSpace=wrap;rounded=0;" vertex="1" parent="1">
          <mxGeometry x="-170" y="170" width="200" height="10" as="geometry" />
        </mxCell>
        <mxCell id="zSfBh07-GXkJKnBQOEwd-30" value="6: display updated value" style="text;html=1;align=center;verticalAlign=middle;whiteSpace=wrap;rounded=0;" vertex="1" parent="1">
          <mxGeometry x="240" y="390" width="160" height="10" as="geometry" />
        </mxCell>
      </root>
    </mxGraphModel>
  </diagram>
</mxfile>
